<svg height="50" viewBox="0 0 64 64" width="50" xmlns="http://www.w3.org/2000/svg" xmlns:xlink="http://www.w3.org/1999/xlink"><linearGradient id="gradient_ice" gradientUnits="userSpaceOnUse" x1="4.283" x2="67.222" y1="58.148" y2="-1.228"><stop offset="0" stop-color="#fff200"/><stop offset="1" stop-color="#cd118c"/></linearGradient><linearGradient id="gradient_ice-2" x1="6.395" x2="69.334" xlink:href="#gradient_ice" y1="60.387" y2="1.011"/><path d="m57.97 30.94a26.029 26.029 0 0 0 -25.03-24.92l-.01-4.02h-2l.01 4.03a26.029 26.029 0 0 0 -24.92 25.03l-4.02.01v2l4.03-.01a26.029 26.029 0 0 0 25.03 24.92l.01 4.02h2l-.01-4.03a26.029 26.029 0 0 0 24.92-25.03l4.02-.01v-2zm-25.02-22.92a24.028 24.028 0 0 1 23.02 22.93h-.68a23.268 23.268 0 0 0 -22.34-22.23zm-2 .01v.68a23.305 23.305 0 0 0 -22.25 22.34h-.68a24.028 24.028 0 0 1 22.93-23.02zm.1 47.95a24.028 24.028 0 0 1 -23.02-22.93h.68a23.268 23.268 0 0 0 22.34 22.23zm-.01-6.98.01 4.28a21.24 21.24 0 0 1 -20.32-20.23l3.27-.01v-2l-3.27.01a21.221 21.221 0 0 1 20.22-20.32l.01 4.27h2l-.01-4.28a21.24 21.24 0 0 1 20.32 20.23l-3.27.01v2l3.27-.01a21.221 21.221 0 0 1 -20.22 20.32l-.01-4.27zm2.01 6.97v-.68a23.305 23.305 0 0 0 22.25-22.34h.68a24.028 24.028 0 0 1 -22.93 23.02z" fill="url(#gradient_ice)"/><path d="m41.93 41.57-9.04-19.98a1 1 0 0 0 -.91-.59 1.012 1.012 0 0 0 -.92.59l-8.95 20.02a1 1 0 0 0 .21 1.12.986.986 0 0 0 1.11.2l8.59-3.84 8.6 3.8a.979.979 0 0 0 1.11-.21 1 1 0 0 0 .2-1.11zm-8.92-4.22-.01-6.35h-2l.01 6.35-6.01 2.69 5.99-13.38v2.34h2v-2.34l6.04 13.35z" fill="url(#gradient_ice-2)"/></svg>